<svg width="155" height="40" viewBox="0 0 155 40" fill="none" xmlns="http://www.w3.org/2000/svg">
    <path fill="#FFFFFF" fill-rule="evenodd" clip-rule="evenodd" d="M124.22 31.5272C124.22 31.5272 126.315 17.3386 126.501 16.0922C126.686 14.8457 127.694 12.5649 129.272 11.3056C130.85 10.0459 132.866 9.17066 135.305 9.17066C137.745 9.17066 139.178 9.76719 139.999 10.2184C140.822 10.6688 141.352 11.239 141.352 11.239C141.352 11.239 142.029 10.5764 143.354 10.0325C144.68 9.48868 145.595 9.1575 147.744 9.1575C149.891 9.1575 151.894 9.84719 152.769 10.7088C153.644 11.5707 153.936 12.0879 154.267 13.5863C154.267 13.5863 154.44 14.6738 154.214 16.238C153.989 17.803 151.987 31.5272 151.987 31.5272H146.324C146.324 31.5272 148.3 18.0017 148.406 17.2194C148.512 16.4372 148.738 14.8062 148.194 14.0902C147.651 13.3744 146.669 13.1886 145.927 13.2415C145.184 13.2946 143.646 13.5202 143.235 15.9731C142.824 18.4258 140.888 31.5272 140.888 31.5272H135.252C135.252 31.5272 137.321 17.4713 137.414 16.7289C137.507 15.9863 137.639 14.236 136.645 13.5997C135.65 12.963 133.86 13.1088 133.131 14.1167C132.401 15.1245 132.242 15.6151 131.99 17.1533C131.739 18.6914 129.882 31.5272 129.882 31.5272H124.22ZM108.268 9.86035H113.89C113.89 9.86035 111.809 24.075 111.65 25.1356C111.49 26.1968 111.596 27.8673 112.578 28.3446C113.559 28.8221 115.15 28.7426 115.813 28.159C116.476 27.5756 117.086 26.9923 117.431 25.1356C117.776 23.2792 119.738 9.83327 119.738 9.83327H125.281C125.281 9.83327 123.398 22.9346 123.186 24.5259C122.973 26.1168 122.205 28.7955 120.507 30.1481C118.81 31.5004 116.98 32.19 112.551 32.19C108.122 32.19 106.399 29.5381 106.133 27.8144C105.868 26.0904 106.054 24.4464 106.425 22.1128C106.796 19.7786 108.268 9.86035 108.268 9.86035ZM75.2112 31.5272C75.2112 31.5272 77.3061 17.3386 77.4914 16.0922C77.6773 14.8457 78.685 12.5649 80.2631 11.3056C81.841 10.0459 83.8566 9.17066 86.2962 9.17066C88.7361 9.17066 90.1684 9.76719 90.9903 10.2184C91.8124 10.6688 92.3428 11.239 92.3428 11.239C92.3428 11.239 93.0194 10.5764 94.3453 10.0325C95.6711 9.48868 96.5861 9.1575 98.7344 9.1575C100.882 9.1575 102.884 9.84719 103.76 10.7088C104.635 11.5707 104.926 12.0879 105.258 13.5863C105.258 13.5863 105.431 14.6738 105.205 16.238C104.98 17.803 102.977 31.5272 102.977 31.5272H97.3153C97.3153 31.5272 99.2912 18.0017 99.3973 17.2194C99.5031 16.4372 99.7287 14.8062 99.1853 14.0902C98.6415 13.3744 97.6601 13.1886 96.9178 13.2415C96.1751 13.2946 94.637 13.5202 94.2258 15.9731C93.8149 18.4258 91.8788 31.5272 91.8788 31.5272H86.2432C86.2432 31.5272 88.3118 17.4713 88.4047 16.7289C88.4974 15.9863 88.6298 14.236 87.6355 13.5997C86.6412 12.963 84.8509 13.1088 84.1217 14.1167C83.3923 15.1245 83.2333 15.6151 82.9814 17.1533C82.7294 18.6914 80.8728 31.5272 80.8728 31.5272H75.2112ZM48.3729 28.7955C48.3729 28.7955 54.9627 19.7523 55.0956 19.5533C55.2281 19.3543 55.2681 18.8638 55.0822 18.5192C54.8964 18.1741 50.8919 11.3319 50.6932 10.9473C50.4939 10.563 50.2422 9.80718 50.6002 8.29563C50.9583 6.78383 51.8996 6.33315 52.3242 6.26656C52.7486 6.20023 53.1595 6.35948 53.6499 7.11551C54.1409 7.87104 58.1585 13.8914 58.3309 14.1565C58.5031 14.4216 58.7819 14.5011 59.0075 14.1828C59.2325 13.8648 67.4007 2.60694 67.7988 2.06333C68.1963 1.51948 69.2045 0.432277 70.1719 0.286439C71.1401 0.1406 71.8693 0.259855 72.5458 0.763706C73.2221 1.26756 73.8055 2.31501 73.686 3.40271C73.5667 4.48992 72.9699 5.43128 72.0152 6.63774C71.0604 7.8447 62.4549 18.32 62.2296 18.5722C62.0037 18.8238 61.9908 19.2218 62.0437 19.5533C62.0966 19.885 62.6405 20.6007 62.8392 20.8927C63.038 21.1843 68.2097 28.875 68.2097 28.875L70.9677 9.83327H76.3247L73.1555 31.5404H70.0261L72.7975 35.6643L67.3344 40C67.3344 40 58.4768 24.5523 58.3443 24.3269C58.2114 24.1013 58.0127 23.7833 57.5752 24.3401C57.1376 24.8974 50.2557 33.3965 50.2557 33.3965L48.3729 28.7955ZM56.5945 4.79476C57.0745 2.50979 58.7861 0.657868 60.4171 0.657868C62.0484 0.657868 62.9821 2.50979 62.5024 4.79476C62.0226 7.07998 60.3113 8.9319 58.6797 8.9319C57.0482 8.9319 56.115 7.07998 56.5945 4.79476ZM34.0519 11.239C34.0519 11.239 35.7225 10.0459 39.9128 9.40942C44.1026 8.7729 45.5878 9.56843 47.4445 10.9473C49.3009 12.3267 49.3009 14.7133 49.0887 16.2251C48.8768 17.7366 47.2586 28.7158 47.2586 28.7158L45.8266 29.8298C44.0497 31.1292 41.6102 31.8452 38.6663 32.1105C35.7225 32.3759 31.9302 31.6067 30.4981 28.3712C29.0661 25.1356 29.9145 21.0251 33.8927 19.0097C37.8708 16.994 43.8643 17.0999 43.8643 17.0999C43.8643 17.0999 44.315 15.2971 43.3337 14.4216C42.241 13.4469 41.1058 13.7585 38.6397 14.1565C36.1734 14.5545 33.4152 15.7341 33.4152 15.7341L34.0519 11.239ZM43.3605 20.7863C43.3605 20.7863 42.114 20.8663 41.2122 20.9456C40.3103 21.0251 38.9314 21.158 37.1545 21.8211C35.3776 22.4837 34.6882 23.8626 34.6882 25.2949C34.6882 26.6208 35.4308 28.1058 37.8174 28.2653C40.2045 28.4241 42.432 26.8859 42.432 26.8859L43.3605 20.7863ZM0 31.5272C0 31.5272 2.09491 17.3386 2.28075 16.0922C2.46634 14.8457 3.47429 12.5649 5.05193 11.3056C6.63006 10.0459 8.64546 9.17066 11.0855 9.17066C13.525 9.17066 14.9573 9.76719 15.7794 10.2184C16.6017 10.6688 17.1319 11.239 17.1319 11.239C17.1319 11.239 17.8082 10.5764 19.1342 10.0325C20.4601 9.48868 21.3749 9.1575 23.5232 9.1575C25.6716 9.1575 27.6738 9.84719 28.5491 10.7088C29.4241 11.5707 29.7158 12.0879 30.0472 13.5863C30.0472 13.5863 30.2196 14.6738 29.9943 16.238C29.7687 17.803 27.7665 31.5272 27.7665 31.5272H22.1046C22.1046 31.5272 24.0802 18.0017 24.1863 17.2194C24.2924 16.4372 24.518 14.8062 23.9742 14.0902C23.4306 13.3744 22.4492 13.1886 21.7066 13.2415C20.964 13.2946 19.4258 13.5202 19.0149 15.9731C18.6037 18.4258 16.6681 31.5272 16.6681 31.5272H11.032C11.032 31.5272 13.1009 17.4713 13.1938 16.7289C13.2867 15.9863 13.4191 14.236 12.4248 13.5997C11.4301 12.963 9.63975 13.1088 8.91056 14.1167C8.18137 15.1245 8.02236 15.6151 7.77043 17.1533C7.51826 18.6914 5.66211 31.5272 5.66211 31.5272H0Z"/>
</svg>